# xmcd
#
# Track frame offsets:
#	183
#	10238
#	20188
#	31330
#	39483
#	50388
#	62880
#	73985
#	83735
#	92203
#	100393
#	108933
#	118008
#	125900
#
# Disc length: 1812 seconds
#
# Revision: 0
# Processed by: cddbd v1.5PL3 Copyright (c) Steve Scherf et al.
# Submitted via: audiograbber 1.82.01
#
DISCID=c607120e
DTITLE=Johnny Cash - 28 great songs CD1
DYEAR=1993
DGENRE=Country
TTITLE0=Ballad of a teenage queen
TTITLE1=Hey Porter
TTITLE2=I love you because
TTITLE3=Guess things happen that way
TTITLE4=The ways of a woman in love
TTITLE5=Next in line
TTITLE6=I just thought you'd like to know
TTITLE7=Just about time
TTITLE8=Country Boy
TTITLE9=Sugartime
TTITLE10=I forgot to remember to forget
TTITLE11=Two timin' woman
TTITLE12=Hey good lookin'
TTITLE13=Goodbye little darling
EXTD=
EXTT0=
EXTT1=
EXTT2=
EXTT3=
EXTT4=
EXTT5=
EXTT6=
EXTT7=
EXTT8=
EXTT9=
EXTT10=
EXTT11=
EXTT12=
EXTT13=
PLAYORDER=
